<?xml version="1.0" encoding="UTF-8" standalone="no"?><!DOCTYPE svg PUBLIC "-//W3C//DTD SVG 1.1//EN" "http://www.w3.org/Graphics/SVG/1.1/DTD/svg11.dtd"><svg width="100%" height="100%" viewBox="0 0 200 110" version="1.1" xmlns="http://www.w3.org/2000/svg" xmlns:xlink="http://www.w3.org/1999/xlink" xml:space="preserve" xmlns:serif="http://www.serif.com/" style="fill-rule:evenodd;clip-rule:evenodd;stroke-linejoin:round;stroke-miterlimit:2;"><rect id="logo" x="0" y="0" width="200" height="110.001" style="fill:none;"/><g id="todo"><path d="M88.077,75.897c-0,-0 26.39,-36.228 22.096,-72.054c62.131,8.695 86.464,16.812 86.464,16.812c0,0 -9.788,68.031 -36.026,86.944c-23.211,-9.224 -72.534,-31.702 -72.534,-31.702Z" style="fill:#fafaf9;"/><path d="M121.702,16.404c-0,-0 1.581,25.345 -18.587,52.768c15.091,5.339 56.055,20.655 56.055,20.655c-0,-0 18.897,-32.374 22.576,-61.804c-20.141,-4.266 -60.044,-11.619 -60.044,-11.619Zm4.843,5.732l48.476,10.393c0,-0 -2.951,26.86 -17.773,50.093c-9.123,-2.234 -46.555,-16.333 -46.555,-16.333c-0,0 15.491,-24.336 15.852,-44.153Z" style="fill:#728aa0;"/><path d="M124.103,55.721c1.274,-1.121 4.335,-3.766 5.284,-0c0.95,3.766 2.506,6.027 3.843,9.127c3.015,-2.735 28.427,-24.344 45.154,-28.821c-6.178,3.984 -37.263,30.055 -42.436,35.693c-5.173,5.638 -4.738,3.452 -6.561,1.664c-1.822,-1.789 -6.557,-15.229 -5.284,-17.663" style="fill:#2f2f2f;"/><path d="M88.077,75.897c-0,-0 26.39,-36.228 22.096,-72.054c62.131,8.695 86.464,16.812 86.464,16.812c0,0 -9.788,68.031 -36.026,86.944c-23.211,-9.224 -72.534,-31.702 -72.534,-31.702Z" style="fill:url(#_Radial1);"/></g><g id="ice-cream"><path d="M22.577,98.954c-4.402,-1.384 -14.826,-12.443 -16.332,-26.9c-1.507,-14.458 6.961,-33.78 16.332,-40.831c9.37,-7.051 29.575,-18.841 49.957,-13.45c20.382,5.392 33.754,18.23 38.909,29.782c3.092,6.93 5.068,18.523 5.117,28.342c0.004,0.9 5.532,-0.617 6.944,4.572c0.113,0.415 1.308,19.417 -6.944,19.926c-9.013,0.555 -34.995,6.05 -45.947,4.803c-10.953,-1.246 -10.123,-4.014 -16.333,-2.882c-6.209,1.132 -7.71,1.22 -13.93,0c-6.219,-1.219 -0.969,-0.964 -7.205,0c-6.237,0.964 -13.442,1.555 -13.45,0c-0.009,-1.555 7.284,-1.978 2.882,-3.362Z" style="fill:url(#_Radial2);"/><path d="M21.108,98.265c0.033,0.019 0.065,0.038 0.098,0.057l-0.629,0c0.215,0 0.427,0.001 0.634,0.003c0.499,0.289 0.958,0.501 1.366,0.629c4.402,1.384 -2.891,1.807 -2.882,3.362c0.008,1.555 7.213,0.964 13.45,0c6.236,-0.964 0.986,-1.219 7.205,0c6.22,1.22 7.721,1.132 13.93,0c6.21,-1.132 5.38,1.636 16.333,2.882c10.952,1.247 36.934,-4.248 45.947,-4.803c0.558,-0.035 1.072,-0.153 1.547,-0.345c0.466,0.224 1.074,0.637 0.95,1.105c-0.153,0.583 -1.007,0.692 -1.581,0.875c-1.155,0.367 -2.394,0.411 -3.555,0.76c-4.592,1.383 -9.018,3.345 -13.689,4.433c-4.391,1.022 -7.962,-0.345 -12.304,-0.512c-23.765,-0.919 -23.703,-0.216 -47.522,-0.199c-14.566,0.01 -14.465,-0.242 -29.082,-1.13c-1.866,-0.114 -4.292,-0.054 -6.065,-0.837c-0.487,-0.215 0.547,-0.938 0.957,-1.276c1.066,-0.879 2.015,-1.923 3.202,-2.629c3.52,-2.093 7.645,-2.383 11.69,-2.375Zm94.971,-21.735c2.117,1.999 0.943,5.928 -1.754,6.725c-3.14,0.928 -3.534,-0.181 -6.662,0.84c-1.845,0.603 -3.489,1.727 -5.321,2.37c-2.842,0.997 -5.838,1.518 -8.672,2.538c-3.746,1.349 -6.465,3.741 -10.553,4.237c-4.525,0.549 -9.121,0.154 -13.665,0.514c-4.134,0.327 -6.092,1.852 -10.338,1.242c-0.339,-0.049 0.066,-0.753 0.329,-0.971c1.54,-1.274 2.605,-1.12 4.466,-1.21c7.513,-0.364 7.522,0.187 14.791,-1.99c2.846,-0.853 3.815,-4.199 4.475,-6.662c0.115,-0.431 -0.45,-1.303 -0.005,-1.338c2.39,-0.193 8.477,1.661 10.5,2.832c0.446,0.258 -1.574,1.263 -1.085,1.101c3.856,-1.276 8.052,-3.434 12.252,-3.503l3.243,0l2.883,-1.921l1.441,0l1.921,-2.153l1.754,-2.651Zm-84.144,10.649l-0.45,0.129c2.596,-0.974 4.229,-0.819 6.862,-1.634c1.608,-0.497 3.71,-1.817 5.392,-2.124c0.626,-0.114 3.044,0.458 3.677,0.245c0.82,-0.276 4.268,-3.526 5.147,-1.144c0.313,0.851 -0.831,1.178 -1.308,1.471c-1.118,0.687 -1.603,1.283 -2.983,1.42c-1.501,0.15 -4.178,-0.335 -5.676,0.05c-2.549,0.656 -4.949,1.802 -7.475,2.539c-1.615,0.471 -2.733,0.187 -4.371,0.239c-0.602,0.019 -1.217,0.322 -1.798,0.163c-0.317,-0.086 0.574,-0.354 0.899,-0.408c0.51,-0.085 1.054,0.141 1.552,-0c0.241,-0.068 0.263,-0.779 0.532,-0.946l0.122,-0.034c-0.046,-0 -0.086,0.012 -0.122,0.034Zm-9.518,-0.851c0.607,-0.608 2.478,-0.879 3.186,-1.226c2.766,-1.356 2.51,-1.843 5.352,-3.059c1.545,-0.662 2.225,-0.264 3.716,-1.107c0.371,-0.21 0.565,-0.642 0.888,-0.921c1.431,-1.237 1.452,-1.327 3.367,-1.458c0.233,-0.015 0.524,-0.026 0.685,0.143c0.122,0.129 0.073,0.398 -0.045,0.531c-0.518,0.58 -1.152,1.051 -1.778,1.512c-1.453,1.073 -2.55,1.574 -4.154,2.383c-1.368,0.69 -2.696,1.468 -4.11,2.058c-3.308,1.379 -4.504,1.297 -7.924,2.287c-0.168,0.049 -0.271,0.233 -0.436,0.288c-0.096,0.032 -0.368,0.031 -0.3,-0.043c0.433,-0.468 0.95,-0.856 1.471,-1.225c0.14,-0.1 0.662,-0.163 0.49,-0.163l-0.408,-0Zm-5.94,-0.494c-0.061,0.102 -0.098,0.218 -0.007,0.234c-0.134,0.097 -0.275,0.184 -0.426,0.26l0.433,-0.494c0.05,-0.085 0.117,-0.16 0.139,-0.16l-0.139,0.16Zm-0.007,0.234c0.722,-0.524 1.214,-1.336 1.617,-2.11c0.425,-0.816 0.189,-0.955 0.735,-1.715c0.551,-0.767 1.654,-0.737 2.426,-1.054c0.983,-0.404 0.845,-0.568 1.504,-1.337c1.293,-1.509 1.318,-1.462 2.769,-2.838c0.104,-0.098 0.34,-0.413 0.554,-0.32c0.628,0.271 -0.583,1.173 -0.636,1.219c-0.729,0.633 -1.516,1.202 -2.205,1.879c-0.934,0.916 -0.873,1.388 -1.716,2.369c-0.428,0.498 -1.007,0.692 -1.471,1.144c-0.229,0.224 -0.774,1.13 -1.062,1.307c-0.344,0.212 -0.8,0.194 -1.143,0.409c-0.618,0.385 -0.552,1.016 -1.341,1.049c-0.011,0 -0.022,-0 -0.031,-0.002Zm15.714,-12.573l4.323,-1.922l5.764,0l3.843,-2.401c0.33,0.685 0.739,1.335 1.002,2.049c0.525,1.431 -0.129,2.502 -1.719,2.533c-1.478,0.03 -2.689,-1.186 -4.226,-0.815c-0.989,0.239 -1.938,0.637 -2.857,1.072c-0.836,0.396 -1.808,1.235 -2.237,2.076c-0.322,0.631 -0.103,1.913 -1.021,2.2c-1.245,0.39 -1.795,0.29 -3.041,0.005c-0.547,-0.125 -1.061,-0.512 -1.668,-0.351c-2.592,0.689 -4.494,2.931 -6.329,4.681l8.166,-9.127Zm15.232,5.807c-0,-1.573 2.4,-1.177 3.186,-1.389c2.67,-0.719 5.341,-1.465 7.924,-2.451c1.886,-0.72 1.281,-1.643 3.187,-2.287c1.315,-0.446 2.738,-0.479 4.084,-0.817c0.476,-0.12 0.906,-0.379 1.365,-0.553c0.441,-0.168 1.356,-0.57 1.413,-0.101c0.026,0.211 -0.31,0.295 -0.49,0.408c-0.993,0.624 -2.05,1.143 -3.023,1.798c-0.429,0.289 -0.825,1.088 -1.389,1.225c-1.89,0.46 -2.351,-0.138 -4.248,0.164c-1.729,0.274 -2.22,2.314 -3.585,3.101c-2.782,1.604 -5.746,1.941 -8.751,2.862c-1.148,0.352 -2.89,1.623 -4.167,0.654c-0.23,-0.175 0.299,-0.558 0.572,-0.654c0.506,-0.175 1.078,-0.16 1.553,-0.408c0.743,-0.389 1.322,-1.04 2.042,-1.471c0.113,-0.067 1.062,-0.048 1.062,-0.408l-0.735,0.327Zm14.583,0.457c1.005,-1.231 2.695,-1.66 4.043,-2.336c1.079,-0.541 2.066,-1.269 3.187,-1.716c2.046,-0.817 3.794,-0.677 5.882,-1.307c2.399,-0.723 4.737,-1.638 7.107,-2.451c0.489,-0.167 0.982,-0.324 1.471,-0.49c0.259,-0.088 0.784,-0.354 0.817,-0.082c0.033,0.272 -0.55,0.064 -0.807,0.158c-0.211,0.077 -0.366,0.259 -0.556,0.379c-1.148,0.726 -2.263,1.511 -3.457,2.159c-1.542,0.837 -3.197,1.452 -4.739,2.288c-0.723,0.392 -1.267,1.11 -2.042,1.389c-1.807,0.65 -3.765,0.792 -5.6,1.362c-1.693,0.527 -3.295,1.311 -4.959,1.923c-0.582,0.214 -1.159,0.606 -1.777,0.554c-0.261,-0.022 0.243,-0.467 0.408,-0.669c0.325,-0.4 0.667,-0.787 1.022,-1.161Zm0,0c0.121,-0.126 0.243,-0.252 0.367,-0.376l-0.572,0.654c0.065,-0.097 0.133,-0.189 0.205,-0.278Zm-52.55,-1.949c0.197,-0.331 0.461,-0.635 0.631,-0.959c0.522,-0.992 1.03,-1.993 1.471,-3.023c0.235,-0.549 0.17,-1.529 0.789,-1.901c0.422,-0.254 0.907,-0.388 1.335,-0.631c0.185,-0.106 0.289,-0.342 0.49,-0.409c0.074,-0.025 0.059,0.152 0.047,0.229c-0.017,0.105 -0.075,0.2 -0.129,0.29c-0.098,0.161 -0.225,0.303 -0.326,0.461c-0.498,0.785 -1.007,1.564 -1.471,2.37c-0.471,0.818 -0.376,1.816 -0.827,2.642c-0.689,1.261 -1.806,2.323 -3.012,3.076c-0.102,0.064 0.038,-0.241 0.091,-0.348c0.058,-0.115 0.189,-0.185 0.235,-0.305c0.165,-0.431 0.163,-1.262 0.676,-1.492Zm-0,-0c0.086,-0.039 0.186,-0.06 0.305,-0.06l-0.572,0.898c-0,-0.31 0.113,-0.582 0.267,-0.838Zm10.246,0.488c4.757,1.532 -4.035,-4.427 -1.441,-6.244c2.594,-1.818 1.195,-0.695 3.362,-3.363c2.168,-2.668 3.363,-2.402 3.363,-2.402c-0,0 1.154,3.075 3.362,0c2.208,-3.074 1.265,-3.717 3.843,-3.842c2.578,-0.126 -0.697,1.529 4.323,-0c5.02,-1.53 4.164,0.033 8.166,-1.578c4.003,-1.611 4.476,-0.622 7.686,-2.265c3.21,-1.644 1.231,-1.313 5.284,-2.883c4.053,-1.569 4.304,-2.085 8.646,-2.401c4.342,-0.317 9.155,-1.484 13.45,-1.922c4.296,-0.437 2.598,-0.711 9.127,0c6.53,0.711 8.929,1.983 11.048,1.922c2.119,-0.062 3.843,-0 3.843,-0c0,-0 3.511,-1.229 0,-1.922c-3.511,-0.693 -3.301,1.204 -6.725,0c-3.423,-1.203 -2.354,-1.362 -4.803,-1.921c-2.45,-0.559 1.711,1.324 -5.284,-0c-6.995,-1.325 -9.626,-2.33 -12.97,-2.402c-3.344,-0.072 -4.369,-0.822 -7.686,0c-3.317,0.822 -5.423,0.407 -8.646,2.402c-3.223,1.994 -5.284,3.843 -5.284,3.843c-0,-0 -1.322,1.418 -3.843,2.401c-2.521,0.984 -0.314,-1.111 -3.843,0c-3.529,1.112 -3.014,-2.259 -4.803,0c-1.789,2.26 0.714,-0.452 -7.686,2.883c-8.4,3.335 -6.917,2.563 -9.127,3.843c-2.209,1.279 -3.823,2.321 -4.803,3.842c-0.981,1.521 -2.402,2.402 -2.402,2.402c-0,0 0.493,2.245 -0,3.363c-0.493,1.118 1.924,5.627 3.843,6.244Zm3.816,-5.074c1.805,-1.798 3.739,-3.149 6.022,-4.276c1.093,-0.54 2.237,-0.98 3.394,-1.361c1.186,-0.39 2.413,-0.641 3.623,-0.948c0.679,-0.172 1.38,-0.265 2.042,-0.49c0.102,-0.035 0.74,-0.715 0.947,-0.576c0.388,0.261 0.094,1.113 -0.075,1.342c-0.839,1.137 -1.22,1.338 -2.54,1.792c-5.276,1.814 -5.368,1.458 -10.504,3.651c-1.367,0.583 -2.673,1.298 -4.003,1.96c-0.402,0.2 -1.04,0.675 -1.553,0.572c-0.126,-0.025 0.152,-0.219 0.265,-0.283c0.276,-0.158 0.606,-0.207 0.879,-0.37c0.519,-0.31 1.006,-0.671 1.503,-1.013Zm-13.012,-5.112c0.693,-0.999 0.832,-2.344 1.869,-3.107c0.876,-0.645 5.73,-3.662 6.536,-4.412c0.507,-0.472 1.634,-3.701 3.072,-2.645c0.483,0.354 -0.102,1.052 -0.37,1.259c-0.9,0.692 -1.954,1.182 -2.801,1.937c-1.941,1.731 -3.749,3.608 -5.538,5.495c-1.779,1.876 -2.07,2.736 -3.533,4.843c-0.347,0.501 -0.743,0.967 -1.106,1.458c-0.138,0.187 -0.354,0.654 -0.508,0.48c-0.209,-0.237 -0.007,-0.744 -0,-0.981c0.012,-0.435 -0.17,-1.552 0.163,-1.96c0.358,-0.44 0.992,-0.577 1.389,-0.981c0.229,-0.233 0.347,-0.664 0.537,-1.013l0.77,-0.539c-0.2,-0 -0.355,0.063 -0.48,0.166c-0.081,0.117 -0.17,0.229 -0.269,0.335c-0.007,0.013 -0.014,0.025 -0.021,0.038l-0.047,0.033c0.023,-0.023 0.046,-0.047 0.068,-0.071c0.075,-0.13 0.161,-0.247 0.269,-0.335Zm13.781,4.623l0.833,-0.541c-0,0.383 -0.581,0.446 -0.833,0.541l-0.801,0.521c0.011,-0.011 0.021,-0.022 0.032,-0.032c0.231,-0.159 0.463,-0.314 0.703,-0.458c0.018,-0.011 0.04,-0.021 0.066,-0.031Zm48.999,-7.945c-0.136,-0.212 -0.226,-0.389 -0.047,-0.439c0.735,-0.205 1.525,-0.04 2.287,-0.081c0.247,-0.014 0.49,-0.065 0.736,-0.082c0.135,-0.01 0.542,-0.024 0.408,-0c-1.127,0.202 -2.253,0.421 -3.384,0.602c0.173,0.27 0.42,0.596 0.28,0.787c-0.317,0.43 -2.402,1.382 -2.86,1.552c-3.826,1.426 -7.682,2.77 -11.519,4.167c-1.168,0.425 -3.007,1.303 -4.33,1.143c-0.232,-0.028 0.254,-0.396 0.409,-0.572c0.445,-0.506 0.946,-0.962 1.388,-1.47c0.294,-0.337 0.45,-0.808 0.817,-1.062c0.717,-0.496 1.851,-0.343 2.615,-0.654c1.131,-0.461 1.23,-1.042 2.237,-1.19c0.327,-0.389 2.374,-1.131 2.664,-1.261c0.671,-0.3 1.282,-0.75 1.989,-0.948c2.03,-0.571 2.527,-0.018 4.576,-0.251c0.58,-0.066 1.157,-0.148 1.734,-0.241Zm5.345,4.3c0.525,-0.526 1.307,-0.708 1.96,-1.062c0.654,-0.354 1.25,-0.847 1.961,-1.062c2.54,-0.77 3.481,-0.173 6.046,-0.736c1.3,-0.285 2.623,-1.65 3.948,-0.548c0.771,0.642 -0.321,1.949 -0.762,2.264c-1.588,1.131 -2.734,1.428 -4.657,1.552c-3.383,0.219 -3.421,-0.38 -6.781,0.327c-0.876,0.185 -1.667,0.669 -2.532,0.899c-1.291,0.343 -2.629,0.482 -3.922,0.817c-0.625,0.162 -0.965,0.765 -1.715,0.49c-0.326,-0.12 0.429,-0.615 0.763,-0.705c0.443,-0.119 0.945,-0.001 1.361,-0.194c1.042,-0.482 1.889,-1.336 2.941,-1.797c0.424,-0.186 1.879,0.448 1.879,-0.572l-0.49,0.327Zm16.747,0.081c1.826,-1.368 4.148,-1.801 6.291,-2.369c2.389,-0.632 2.365,-0.672 4.82,-0.98c1.033,-0.13 2.072,-0.197 3.105,-0.327c0.17,-0.021 1.906,-0.595 1.307,0.409c-0.774,1.296 -2.372,1.837 -3.749,2.132c-0.861,0.184 -1.756,0.165 -2.624,0.318c-1.323,0.234 -1.244,0.555 -2.589,0.594c-2.139,0.061 -2.14,-0.357 -4.273,-0.103c-1.518,0.18 -2.338,1.735 -3.84,1.96c-0.177,0.027 -0.107,-0.392 -0.003,-0.538c0.322,-0.453 0.653,-0.906 1.052,-1.292c0.206,-0.198 0.453,-0.416 0.738,-0.437c0.131,-0.01 0.06,0.388 -0.071,0.388l-0.164,0.245Zm-33.055,-1.68c0.156,-0.023 0.334,-0.035 0.54,-0.035l-0.572,0.081c0.008,-0.014 0.018,-0.03 0.032,-0.046Zm18.099,-2.819l-0.484,0.088c0.998,-0.499 2.468,-0.318 3.513,-0.409c2.753,-0.238 5.499,-0.559 8.251,-0.817c1.034,-0.096 2.071,-0.153 3.105,-0.245c0.129,-0.011 0.85,-0.189 0.98,0c0.163,0.238 0.067,1.209 -0.327,1.307c-1.304,0.326 -2.666,0.349 -4.003,0.491c-2.013,0.212 -4.039,0.302 -6.045,0.571c-1.113,0.15 -1.573,0.701 -2.696,0.817c-1.084,0.112 -2.181,0.009 -3.268,0.082c-0.369,0.025 -1.155,0.403 -1.553,0.245c-0.114,-0.045 0.154,-0.201 0.261,-0.263c0.225,-0.131 0.52,-0.14 0.72,-0.309c0.511,-0.431 0.864,-1.298 1.546,-1.558l0.415,-0.076c-0.152,0 -0.289,0.028 -0.415,0.076Zm-15.026,-1.873c4.057,-2.028 4.412,-2.247 8.957,-2.592c2.712,-0.206 2.877,0.434 5.59,0.1c1.05,-0.13 0.857,-0.841 1.975,-0.803c1.025,0.035 2.018,0.407 3.042,0.477c1.525,0.105 3.049,-0.593 4.568,-0.42c0.689,0.079 2.607,1.186 1.521,2.176c-1.181,1.076 -2.95,-0.1 -4.167,-0.163c-0.448,-0.024 -0.873,0.441 -1.307,0.326c-0.25,-0.065 -0.022,-0.605 -0.245,-0.735c-0.217,-0.126 -0.485,0.145 -0.735,0.164c-0.489,0.036 -1.003,-0.147 -1.471,-0c-0.447,0.139 -0.703,0.658 -1.144,0.817c-1.626,0.585 -2.906,0.325 -4.575,0.571c-1.997,0.295 -3.969,0.746 -5.964,1.062c-0.92,0.147 -1.847,0.264 -2.777,0.327c-0.273,0.019 -0.633,0.121 -0.817,-0.081c-0.183,-0.202 0.155,-0.594 -0,-0.817c-0.163,-0.234 -0.858,0.375 -0.899,0.408c-0.565,0.461 -2.446,2.631 -3.349,1.062c-0.906,-1.574 2.195,-1.623 2.614,-2.042l-0.817,0.163Zm31.517,-1.908l-0.718,0.111c0.867,-0.434 2.531,-0.254 3.432,-0.327c3.438,-0.279 3.401,-0.57 6.862,-0.572c0.471,-0 0.951,0.044 1.402,0.18c0.379,0.113 0.71,0.352 1.049,0.555c0.079,0.048 0.402,0.325 0.245,0.491c-0.343,0.362 -0.757,0.654 -1.179,0.919c-3.052,1.916 -7.012,0.327 -10.177,-0.021c-1.137,-0.125 -2.287,-0.077 -3.431,-0.081c-0.322,-0.002 -0.821,0.173 -1.144,-0c-0.206,-0.112 0.421,-0.216 0.648,-0.274c0.275,-0.07 0.545,-0.159 0.823,-0.217c0.46,-0.096 0.94,-0.106 1.389,-0.245c0.437,-0.135 0.492,-0.405 0.799,-0.519l0.344,-0.053c-0.146,0 -0.255,0.02 -0.344,0.053Zm5.366,-4.908c0.318,0.215 1.175,0.117 1.433,0.117l4.411,-0c0.102,-0 1.256,-0.133 1.389,-0c0.409,0.409 -1.129,0.863 -1.307,0.899c-1.192,0.238 -2.587,-0.472 -3.758,-0.082c-0.144,0.048 -1.031,0.358 -1.226,0.163c-0.398,-0.398 -1.385,0.497 -1.47,0.327c-0.057,-0.113 -0.324,-0.901 -0.245,-0.98c0.164,-0.165 0.755,-0.137 0.966,-0.107l0.014,0.025c0.095,0 0.072,-0.013 -0.014,-0.025l-0.193,-0.337c-0.075,-0.051 -0.12,-0.119 -0.12,-0.21l0.12,0.21Zm-11.675,-0.449c0.271,-0.106 0.735,-0.088 0.935,-0.088c1.213,0 2.667,0.082 4.003,0.082c0.18,0 1.449,0.185 1.144,0.49c-0.593,0.592 -2.047,-0.038 -2.778,0.327c-0.685,0.343 -1.494,1.366 -2.451,0.409c-0.027,-0.027 -0.954,0.353 -1.144,0.163c-0.744,-0.744 0.502,-0.665 0.736,-0.899c0.349,-0.349 -0.156,-0.459 -0.445,-0.484Zm-0.167,0.114l0.04,-0.12c0.031,0 0.076,0.002 0.127,0.006c-0.072,0.028 -0.131,0.065 -0.167,0.114l-0.042,0.125c0,-0.049 0.015,-0.09 0.042,-0.125Zm-51.599,-22.932c-2.687,0 -5.048,1.548 -7.531,2.298c-1.288,0.389 -2.844,0.084 -3.957,1.021c-0.622,0.523 0.585,1.108 0.511,1.659c-0.087,0.64 -1.18,0.396 -1.455,0.792c-0.217,0.312 -0.041,0.78 -0.205,1.123c-0.13,0.272 -0.388,0.472 -0.638,0.638c-0.146,0.098 -0.675,0.067 -0.511,0.128c0.748,0.277 2.254,0.498 2.681,-0.511c0.097,-0.229 -0.051,-1.181 0.128,-1.404c0.412,-0.514 1.966,-1.413 2.553,-1.659c1.001,-0.421 2.066,0.154 3.079,0.081c2.346,-0.171 4.104,-2.009 5.984,-3.145c0.441,-0.266 0.764,0.054 1.149,-0.383c0.057,-0.065 -0.153,-0.089 -0.238,-0.103c-0.174,-0.029 -0.368,0.049 -0.528,-0.024c-0.248,-0.114 -0.369,-0.47 -0.639,-0.511c-0.328,-0.05 -0.306,0.766 -0.638,0.766l0.255,-0.766Zm12.269,-1.654c1.971,-1.501 4.298,-2.279 6.751,-2.814c0.561,-0.122 1.724,-0.438 2.298,0c0.114,0.087 -0.209,0.232 -0.351,0.247c-0.187,0.02 -0.485,-0.112 -0.67,0.009c-0.131,0.085 -0.057,0.368 -0.089,0.471c-0.162,0.521 -0.356,0.975 -0.8,1.326c-1.223,0.964 -2.844,0.994 -4.256,1.479c-0.513,0.177 -0.676,0.658 -1.246,0.74c-0.444,0.064 -1.168,-0.234 -1.497,-0.51c-0.174,-0.145 -0.395,-0.407 -0.444,-0.62l0.418,-0.333c-0.042,-0 -0.079,0.001 -0.114,0.005c-0.105,0.08 -0.21,0.163 -0.313,0.247c-0.001,0.026 0.003,0.053 0.009,0.081l-0.859,0.688c0.274,-0.275 0.558,-0.53 0.85,-0.769c0,-0.126 0.085,-0.224 0.313,-0.247Zm16.834,-3.687c2.836,-1.202 6.048,-0.85 8.974,-0.173c0.74,0.171 1.888,0.428 2.18,1.298c0.071,0.208 -0.164,0.442 -0.317,0.512c-0.892,0.41 -1.414,0.539 -2.382,0.682c-0.9,0.134 -1.8,0.3 -2.709,0.341c-0.382,0.018 -0.9,-0.338 -1.179,-0.544c-0.129,-0.095 -0.508,-0.534 -0.736,-0.477c-0.671,0.17 -1.259,0.597 -1.929,0.772c-0.885,0.231 -0.854,-0.296 -1.764,-0.171c-0.286,0.039 -0.5,0.34 -0.788,0.361c-0.392,0.029 -0.471,-0.524 -0.625,-0.707c-0.271,-0.322 -0.688,-0.525 -0.893,-0.893c-0.059,-0.105 0.148,-0.197 0.252,-0.258c0.461,-0.267 1.29,-0.65 1.916,-0.743Zm-0,0c0.09,-0.013 0.177,-0.02 0.257,-0.02l-0.766,0.255c0.168,-0.084 0.338,-0.162 0.509,-0.235Z" style="fill:#e8dfcb;"/></g><defs><radialGradient id="_Radial1" cx="0" cy="0" r="1" gradientUnits="userSpaceOnUse" gradientTransform="matrix(42.3571,-15.6036,15.6036,42.3571,100,81.2903)"><stop offset="0" style="stop-color:#878787;stop-opacity:1"/><stop offset="1" style="stop-color:#aeaeae;stop-opacity:0"/></radialGradient><radialGradient id="_Radial2" cx="0" cy="0" r="1" gradientUnits="userSpaceOnUse" gradientTransform="matrix(36.9875,39.3132,-39.3132,36.9875,48.5161,36.0268)"><stop offset="0" style="stop-color:#fcfbf8;stop-opacity:1"/><stop offset="1" style="stop-color:#f5eedb;stop-opacity:1"/></radialGradient></defs></svg>